<?xml version="1.0" standalone="no"?>
<!DOCTYPE svg PUBLIC "-//W3C//DTD SVG 20010904//EN"
 "http://www.w3.org/TR/2001/REC-SVG-20010904/DTD/svg10.dtd">
<svg version="1.0" xmlns="http://www.w3.org/2000/svg"
 width="260.000000pt" height="260.000000pt" viewBox="0 0 260.000000 260.000000"
 preserveAspectRatio="xMidYMid meet">
<metadata>
Created by potrace 1.11, written by Peter Selinger 2001-2013
</metadata>
<g transform="translate(0.000000,260.000000) scale(0.100000,-0.100000)"
fill="#000000" stroke="none">
<path d="M1775 2429 c-139 -18 -259 -98 -306 -204 -33 -74 -31 -175 5 -249 45
-92 113 -135 302 -189 65 -19 131 -40 146 -46 41 -16 68 -48 68 -79 0 -108
-226 -88 -420 37 -30 20 -61 40 -67 44 -9 6 -29 -26 -68 -109 -30 -64 -52
-120 -49 -125 13 -22 147 -91 229 -118 305 -102 590 -31 678 168 27 63 28 180
0 241 -22 50 -91 119 -150 148 -21 11 -103 40 -183 66 -154 50 -190 72 -190
117 0 83 147 77 343 -13 48 -23 89 -39 92 -37 2 3 29 56 59 119 l56 115 -77
37 c-137 66 -318 96 -468 77z"/>
<path d="M422 2288 l3 -123 178 -3 178 -2 -3 -250 c-3 -244 -3 -250 -26 -272
-45 -46 -139 -25 -242 55 l-45 34 -67 -96 c-37 -53 -68 -102 -68 -108 0 -19
98 -93 165 -124 79 -38 162 -52 255 -46 197 13 316 121 340 307 5 41 10 227
10 413 l0 337 -340 0 -341 0 3 -122z"/>
<path d="M1720 1209 c-110 -21 -213 -97 -273 -200 -89 -152 -90 -464 -3 -636
81 -160 276 -246 487 -215 260 38 393 216 393 527 -1 189 -39 307 -130 405
-82 88 -196 131 -344 129 -47 -1 -105 -5 -130 -10z m208 -235 c12 -8 32 -34
44 -57 19 -37 23 -62 26 -193 5 -185 -7 -252 -52 -301 -27 -30 -41 -36 -82
-40 -65 -5 -108 21 -137 85 -20 43 -22 63 -22 222 0 163 2 178 23 223 13 26
36 54 50 62 36 19 122 19 150 -1z"/>
<path d="M362 1098 l3 -113 183 -5 182 -5 -105 -105 -105 -105 0 -82 0 -81
141 -4 141 -3 29 -33 c53 -59 32 -138 -46 -168 -80 -30 -196 -7 -308 62 -32
20 -60 34 -61 33 -1 -2 -27 -49 -56 -103 l-53 -100 24 -19 c73 -61 264 -117
396 -117 269 0 439 137 437 350 -2 143 -86 238 -242 278 l-73 19 135 122 136
123 0 84 0 84 -380 0 -381 0 3 -112z"/>
</g>
</svg>
