<?xml version="1.0" standalone="no"?>
<!DOCTYPE svg PUBLIC "-//W3C//DTD SVG 20010904//EN"
 "http://www.w3.org/TR/2001/REC-SVG-20010904/DTD/svg10.dtd">
<svg version="1.0" xmlns="http://www.w3.org/2000/svg"
 width="260.000000pt" height="260.000000pt" viewBox="0 0 260.000000 260.000000"
 preserveAspectRatio="xMidYMid meet">
<metadata>
Created by potrace 1.11, written by Peter Selinger 2001-2013
</metadata>
<g transform="translate(0.000000,260.000000) scale(0.100000,-0.100000)"
fill="#000000" stroke="none">
<path d="M1763 2429 c-137 -23 -249 -100 -293 -201 -34 -78 -32 -178 4 -252
45 -92 113 -135 302 -189 65 -19 131 -40 146 -46 41 -16 68 -48 68 -79 0 -91
-155 -94 -340 -6 -41 19 -88 45 -105 58 -16 12 -36 26 -42 30 -9 5 -30 -29
-68 -110 -30 -64 -52 -120 -49 -125 13 -22 147 -91 229 -118 305 -102 590 -31
678 168 26 58 27 179 3 236 -22 52 -89 121 -146 150 -25 12 -104 42 -177 64
-156 49 -197 74 -201 118 -9 87 141 83 341 -9 48 -23 89 -39 92 -37 2 3 29 56
59 119 l55 114 -38 23 c-59 35 -208 81 -301 92 -96 12 -143 12 -217 0z"/>
<path d="M422 2288 l3 -123 178 -3 177 -2 0 -238 c0 -257 -4 -277 -53 -300
-51 -24 -140 8 -232 82 l-30 25 -64 -92 c-35 -51 -66 -99 -68 -109 -3 -11 13
-30 48 -58 103 -81 211 -120 334 -120 174 0 301 78 356 216 22 57 23 69 27
452 l4 392 -341 0 -342 0 3 -122z"/>
<path d="M364 1207 c-2 -7 -3 -60 -2 -118 l3 -104 183 -5 182 -5 -105 -105
-105 -105 0 -82 0 -83 125 0 c135 0 169 -9 199 -52 30 -43 14 -114 -31 -143
-74 -49 -251 -16 -365 68 -15 11 -29 19 -31 16 -11 -13 -107 -201 -107 -209 0
-16 162 -89 244 -110 98 -25 243 -26 330 -4 175 45 281 169 280 329 -1 80 -19
130 -67 182 -53 58 -92 80 -176 101 l-71 19 135 122 136 123 -3 86 -3 87 -373
3 c-303 2 -373 0 -378 -11z"/>
<path d="M1701 1204 c-213 -57 -321 -231 -321 -514 0 -316 130 -495 388 -532
63 -9 101 -9 163 0 260 38 393 216 393 527 -1 288 -104 454 -323 519 -68 20
-225 20 -300 0z m227 -230 c12 -8 32 -34 44 -57 19 -37 23 -62 26 -193 5 -185
-7 -252 -52 -301 -27 -30 -41 -36 -82 -40 -65 -5 -108 21 -137 85 -20 43 -22
63 -22 222 0 163 2 178 23 223 13 26 36 54 50 62 36 19 122 19 150 -1z"/>
</g>
</svg>
